<?xml version="1.0" standalone="no"?>
<!DOCTYPE svg PUBLIC "-//W3C//DTD SVG 20010904//EN"
 "http://www.w3.org/TR/2001/REC-SVG-20010904/DTD/svg10.dtd">
<svg version="1.0" xmlns="http://www.w3.org/2000/svg"
 width="3126.000000pt" height="2084.000000pt" viewBox="0 0 3126.000000 2084.000000"
 preserveAspectRatio="xMidYMid meet">

<g transform="translate(0.000000,2084.000000) scale(0.100000,-0.100000)"
fill="#000000" stroke="none">
<path d="M4247 16420 c-540 -48 -1036 -307 -1382 -720 -211 -253 -358 -561
-432 -905 -26 -123 -27 -144 -27 -385 0 -241 1 -262 27 -385 129 -606 478
-1082 1015 -1384 l92 -52 0 -620 0 -619 -23 -9 c-13 -5 -58 -30 -101 -55 -254
-150 -458 -384 -566 -649 -32 -79 -225 -724 -275 -917 -49 -191 -69 -494 -46
-687 47 -375 192 -718 428 -1010 42 -53 295 -305 595 -595 l521 -503 -211 -3
-212 -2 0 -951 c0 -751 3 -950 13 -954 6 -2 954 -6 2105 -10 l2092 -6 0 955 0
955 -131 3 -131 3 83 65 c46 35 135 114 198 175 398 385 660 869 765 1413 44
231 46 283 46 1586 0 1201 -1 1244 -20 1323 -64 266 -254 477 -505 560 -70 23
-97 27 -215 27 -142 1 -226 -16 -325 -66 -37 -19 -40 -19 -50 -4 -119 197
-260 325 -435 394 -107 42 -180 56 -300 55 -169 0 -321 -44 -449 -129 l-55
-35 -25 33 c-118 153 -283 267 -456 314 -142 38 -361 27 -497 -27 -48 -19 -80
-17 -48 2 8 5 61 36 117 69 449 263 783 693 923 1188 136 482 95 966 -120
1419 -288 606 -866 1032 -1530 1127 -139 20 -332 26 -453 16z m459 -509 c148
-30 244 -64 389 -136 420 -209 715 -591 817 -1058 19 -87 22 -133 22 -307 0
-174 -3 -220 -22 -307 -75 -346 -271 -669 -532 -876 l-75 -60 -5 309 -5 309
29 43 c49 75 106 209 133 310 37 142 43 339 13 481 -46 223 -131 382 -295 547
-161 162 -299 240 -523 297 -73 18 -113 21 -247 21 -139 -1 -173 -4 -258 -27
-718 -191 -1039 -1010 -641 -1635 l34 -52 0 -305 c0 -168 -3 -305 -6 -305 -12
0 -126 93 -191 157 -468 457 -593 1174 -307 1759 152 312 407 564 718 714 155
74 293 113 511 144 76 11 344 -3 441 -23z m-133 -1780 c116 -57 205 -183 227
-321 6 -42 10 -594 10 -1540 0 -1668 -7 -1514 82 -1597 119 -109 308 -72 380
75 l23 47 5 555 5 555 26 56 c33 70 91 130 161 165 42 22 71 28 140 32 77 4
92 2 145 -22 79 -37 144 -103 185 -190 l33 -71 5 -545 c6 -615 2 -585 86 -659
119 -105 301 -70 377 73 22 40 22 50 27 496 l5 455 26 56 c37 79 90 133 166
171 58 28 75 32 152 32 79 1 91 -2 149 -33 77 -42 125 -94 166 -180 l31 -66 5
-445 c5 -432 6 -446 27 -485 58 -109 178 -158 297 -123 55 16 138 99 154 154
8 28 12 127 12 306 0 302 7 342 68 410 51 56 121 88 196 88 76 0 132 -27 185
-86 76 -86 71 5 71 -1365 0 -1350 0 -1337 -61 -1589 -52 -211 -132 -403 -251
-600 -96 -160 -178 -262 -332 -415 -145 -144 -219 -202 -411 -322 l-110 -69
-3 -107 -3 -107 -1219 0 -1220 0 0 93 -1 92 -586 565 c-322 311 -613 596 -646
635 -171 198 -291 459 -332 720 -21 134 -16 408 10 522 8 40 67 249 130 465
121 411 160 515 238 618 52 70 117 140 128 140 5 0 9 -262 9 -592 0 -391 4
-606 11 -632 13 -48 82 -123 134 -147 48 -22 142 -25 189 -5 46 19 104 72 129
120 l22 41 5 2150 c4 1540 8 2159 16 2180 47 128 116 203 233 252 77 32 221
29 294 -6z m2115 -7708 l692 -6 0 -465 0 -465 -1067 6 c-586 4 -1315 7 -1620
7 l-553 0 0 465 0 465 928 0 c511 0 1240 -3 1620 -7z"/>
<path d="M7034 15072 c16 -50 47 -210 60 -312 45 -356 23 -698 -69 -1047 -43
-163 -90 -292 -166 -452 -33 -68 -59 -124 -59 -125 0 -1 44 -2 98 -4 311 -9
604 -114 856 -307 l82 -62 144 -6 c235 -10 393 -48 585 -143 428 -210 727
-623 800 -1104 12 -79 15 -301 15 -1342 0 -774 -4 -1296 -10 -1375 -55 -678
-323 -1339 -749 -1853 l-71 -85 2 -925 3 -925 9150 0 c8755 0 9154 1 9245 18
295 56 550 194 757 410 182 191 295 406 355 680 l23 102 0 3830 0 3830 -23
105 c-30 136 -64 234 -120 345 -189 379 -523 637 -957 739 l-90 21 -9933 2
c-9505 3 -9933 2 -9928 -15z m17575 -1719 c0 -5 -204 -189 -452 -410 l-452
-403 -184 0 c-143 0 -182 3 -178 13 5 13 457 734 489 780 l19 27 380 0 c208 0
379 -3 378 -7z m-6549 -1163 c429 -37 719 -174 910 -430 235 -317 310 -742
297 -1680 -6 -407 -12 -502 -52 -721 -57 -316 -160 -531 -349 -726 -49 -51
-86 -93 -82 -93 4 0 87 30 184 67 l177 68 213 3 212 3 0 -315 0 -316 -620 0
c-560 0 -640 -2 -823 -21 -491 -51 -899 14 -1156 186 -264 175 -414 481 -475
970 -53 423 -59 1368 -11 1780 71 607 287 954 699 1121 229 92 560 131 876
104z m-3056 -112 c9 -29 256 -942 551 -2028 295 -1086 538 -1981 540 -1987 3
-10 -90 -13 -448 -13 l-452 0 -104 418 c-57 229 -108 432 -113 450 l-9 32
-579 0 -579 0 -10 -37 c-6 -21 -57 -222 -115 -447 -58 -224 -107 -410 -109
-412 -2 -2 -193 -3 -424 -2 l-420 3 558 2015 c307 1108 561 2025 564 2038 l5
22 565 0 564 0 15 -52z m5779 -1450 c3 -1482 3 -1504 24 -1594 68 -295 228
-435 499 -435 56 0 124 5 150 12 191 46 313 186 367 420 21 94 21 101 24 1597
l4 1502 425 0 424 0 -3 -1562 c-3 -1553 -3 -1564 -24 -1648 -110 -442 -364
-722 -776 -856 -194 -62 -308 -78 -587 -77 -206 0 -263 3 -360 21 -313 57
-531 162 -705 338 -136 138 -228 310 -283 531 l-26 108 -3 1573 -3 1572 424 0
425 0 4 -1502z m3467 -538 l0 -2040 -430 0 -430 0 0 2040 0 2040 430 0 430 0
0 -2040z"/>
<path d="M17720 11566 c-239 -69 -337 -276 -381 -811 -17 -201 -17 -1108 -1
-1310 47 -565 161 -774 445 -816 152 -23 312 24 400 116 164 171 217 502 217
1349 0 733 -34 1037 -140 1252 -49 100 -122 172 -208 205 -71 27 -260 36 -332
15z"/>
<path d="M14367 11325 c-3 -11 -90 -400 -192 -865 -102 -465 -188 -853 -191
-862 -5 -17 18 -18 395 -18 362 0 401 2 401 16 0 13 -392 1703 -404 1739 -1 6
-6 1 -9 -10z"/>
</g>
</svg>
