<?xml version="1.0" standalone="no"?> <!DOCTYPE svg PUBLIC "-//W3C//DTD SVG 1.0//EN" "http://www.w3.org/TR/2001/REC-SVG-20010904/DTD/svg10.dtd" > <svg xmlns="http://www.w3.org/2000/svg" width="100%" height="100%">
<defs >
<font horiz-adv-x="380" ><font-face
    font-family="KillerStumps"
    units-per-em="1000"
    panose-1="0 0 4 0 0 0 0 0 0 0"
    ascent="800"
    descent="-282"
    alphabetic="0" />
<missing-glyph horiz-adv-x="500" d="M63 0V800H438V0H63ZM125 63H375V738H125V63Z" />
<glyph unicode=" " glyph-name="space" horiz-adv-x="300" />
<glyph unicode="!" glyph-name="exclam" horiz-adv-x="234" d="M192 54L138 0L84 54L138 108L192 54ZM165 135H138Q135 226 111 405T84 675H219Q200 603 195 541Q192 503 192 398Q192 376 171 274Q165 245 165 205V135Z" />
<glyph unicode="&quot;" glyph-name="quotedbl" horiz-adv-x="325" d="M82 324Q55 456 55 501V621H136V501Q136 464 126 412L109 324H82ZM217 324Q217 468 216 478Q214 497 190 621H298Q273 502 272 480T271 324H217Z" />
<glyph unicode="#" glyph-name="numbersign" horiz-adv-x="463" d="M245 360H198Q194 323 189 288H238Q241 325 245 360ZM25 378V459H96Q110 542 133 621H214Q212 536 206 459H258Q272 542 295 621H376Q374 536 368 459H430V378Q407 373 360 365Q356 322 350 280Q368
276 403 270V216Q382 212 339 204Q321 99 295 0H241L231 124Q231 125 233 198H176Q159 97 133 0H79L69 124Q69 125 71 205Q47 209 -2 216V270L76 282Q79 327 84 369Q64 372 25 378Z" />
<glyph unicode="$" glyph-name="dollar" horiz-adv-x="459" d="M214 -108V0Q149 17 97 31Q4 57 -2 81L25 135Q80 108 214 54Q197 160 197 176Q197 204 214 297H160Q94 350 79 368Q61 390 25 459Q64 540 96 566Q121 586 214 621V702H241V621Q272 613 336 592L344
589Q424 559 430 540L403 486Q393 506 328 534Q280 555 241 567V351Q334 306 362 280Q401 244 430 162Q385 84 356 59T241 0V-108H214ZM241 270V54L376 162L313 225Q292 246 241 270ZM214 351Q198 441 198 459Q198 477 214 567L79 459L214 351Z" />
<glyph unicode="%" glyph-name="percent" horiz-adv-x="498" d="M334 -27Q255 16 234 36Q209 60 172 135Q203 197 236 223Q266 248 334 270Q389 245 417 218Q442 191 469 135Q438 66 417 41T334 -27ZM334 27L415 135L334 243L226 135L334 27ZM253 621L280 513Q255
457 229 431T145 378Q77 410 51 431T-17 513Q33 604 82 639Q140 681 236 681Q270 681 339 678T442 675L496 729V721Q496 605 299 339Q142 127 10 0H-17Q117 338 415 621H253ZM145 432L226 513L145 621L37 513L145 432Z" />
<glyph unicode="&amp;" glyph-name="ampersand" horiz-adv-x="501" d="M168 336L266 459L185 513L104 459Q142 382 168 336ZM137 262Q102 224 77 162L185 54Q219 75 279 114L239 162Q229 174 196 197Q166 217 155 234Q150 241 137 262ZM347 459Q319 396 272 359L187
304Q235 224 314 142Q356 182 374 243H320V270H482V243H428Q386 187 335 121Q370 85 455 0H374L305 83L239 0H217Q134 0 81 45Q40 80 -4 162Q30 219 46 239Q65 264 110 305Q59 387 23 459Q92 574 212 567L347 459Z" />
<glyph unicode="&apos;" glyph-name="quotesingle" horiz-adv-x="222" d="M141 324Q119 458 87 621H195Q170 502 169 480T168 324H141Z" />
<glyph unicode="(" glyph-name="parenleft" horiz-adv-x="277" d="M297 648Q205 556 172 478Q137 396 137 269Q137 155 180 67Q207 12 297 -108H270Q173 -11 127 62Q61 167 61 272Q61 387 124 495Q172 577 270 675L297 648Z" />
<glyph unicode=")" glyph-name="parenright" horiz-adv-x="320" d="M42 -108Q154 40 169 70Q204 141 204 270Q204 406 171 480Q141 549 42 648L69 675Q178 567 220 497Q281 395 281 273Q281 158 218 61Q181 4 69 -108H42Z" />
<glyph unicode="*" glyph-name="asterisk" horiz-adv-x="420" d="M79 297V324Q79 351 187 459Q100 488 -2 540L25 567H106Q115 549 154 532Q186 518 214 513L187 540V601Q187 648 214 702L268 621Q240 555 240 524Q240 518 241 513Q309 547 319 551Q359 567 403
567L430 540Q365 495 343 487Q332 483 241 459Q319 407 326 401Q350 380 376 324L349 297H322Q281 358 272 370Q258 388 214 432Q191 384 133 297H79Z" />
<glyph unicode="+" glyph-name="plus" horiz-adv-x="448" d="M241 270V81H187V270H-2V324H187V513H241V324H430V270H241Z" />
<glyph unicode="," glyph-name="comma" horiz-adv-x="198" d="M77 -135L131 -81Q129 -77 129 -72Q129 -41 158 0H131L104 27L158 81L212 27V0L148 -64Q128 -84 104 -135H77Z" />
<glyph unicode="-" glyph-name="hyphen" horiz-adv-x="227" />
<glyph unicode="." glyph-name="period" horiz-adv-x="232" d="M193 54L139 0L85 54L139 108L193 54Z" />
<glyph unicode="/" glyph-name="slash" horiz-adv-x="388" d="M323 675H377V622Q377 504 300 368Q263 304 157 123Q80 -9 80 -81H26V-28Q26 91 103 226Q140 289 246 471Q323 604 323 675Z" />
<glyph unicode="0" glyph-name="zero" horiz-adv-x="483" d="M150 618Q189 635 230 635Q343 635 392 546Q426 483 434 357Q437 304 434 263Q424 139 388 82Q340 7 228 7Q112 7 51 113Q2 199 2 324Q2 418 37 495Q78 586 154 620L150 618ZM83 263Q83 118 218 54Q353
112 353 256V383Q353 433 345 472Q339 499 313 554L218 567Q83 510 83 360V263Z" />
<glyph unicode="1" glyph-name="one" horiz-adv-x="327" d="M260 0H179Q140 147 140 219V348Q140 420 179 567L17 513L133 591Q188 621 260 621Q280 441 280 311Q280 180 260 0Z" />
<glyph unicode="2" glyph-name="two" horiz-adv-x="419" d="M430 81V0Q319 -18 281 -18H147Q119 -18 72 -11L-2 0Q33 129 106 185Q142 211 242 287Q316 343 349 459Q330 469 264 508Q220 534 187 567L25 486L-2 540Q63 573 187 648Q271 618 285 610Q306 598 371
550Q389 501 389 468Q389 376 319 311L187 189Q183 184 106 81L187 93Q234 100 268 100Q302 100 349 93L430 81Z" />
<glyph unicode="3" glyph-name="three" horiz-adv-x="461" d="M52 486L25 513L52 567Q128 609 145 617Q209 648 241 648Q254 643 314 615Q356 596 384 562Q402 541 430 486L322 324H268Q323 297 361 242Q369 231 430 135Q341 0 241 0Q171 0 109 31Q63 54 -2 108L52
162V135Q117 102 127 98Q172 80 208 80Q244 80 282 97Q300 105 349 135L241 297H187V351H241L349 486L312 567H253Q213 567 144 542Q67 514 52 486Z" />
<glyph unicode="4" glyph-name="four" horiz-adv-x="468" d="M376 0H268V189Q156 172 143 172Q124 172 -2 189Q173 461 376 648V243H430V189H376V0ZM106 243H268V459Q198 343 106 243Z" />
<glyph unicode="5" glyph-name="five" horiz-adv-x="452" d="M25 621Q154 639 167 639H277Q291 639 403 621V567Q269 549 256 549Q242 549 106 567V432H133L214 459Q315 427 364 378Q422 319 422 222Q422 126 353 63T187 0Q148 0 86 39Q35 71 -2 108H32Q74 108
113 91Q121 87 187 54Q264 86 292 112Q323 142 349 216Q324 300 295 334T187 405Q108 378 74 378H25V621Z" />
<glyph unicode="6" glyph-name="six" horiz-adv-x="415" d="M336 648V594Q259 571 218 543Q163 505 142 442L93 297Q121 325 201 378H228Q317 323 335 304Q362 275 390 189Q355 99 323 67T201 0Q113 46 76 82Q20 137 20 217Q20 388 98 490Q172 586 336 648ZM93
189L201 54L309 189L201 297L93 189Z" />
<glyph unicode="7" glyph-name="seven" horiz-adv-x="411" d="M13 540V621Q141 639 155 639H267Q278 639 391 621Q357 307 202 0H121Q190 302 337 540H13Z" />
<glyph unicode="8" glyph-name="eight" horiz-adv-x="461" d="M253 276Q204 276 159 249Q141 238 79 189V162Q144 110 214 110Q285 110 349 162V189L322 263Q285 276 253 276ZM25 486Q79 569 101 587Q117 600 214 648Q309 605 330 589Q362 564 403 486Q370 411
356 389Q339 363 298 335Q346 315 378 267Q401 233 430 162Q384 87 344 54Q290 10 214 10Q130 10 82 49Q44 79 -2 162Q37 237 46 251Q74 292 119 316Q128 321 152 334Q104 362 77 398Q65 414 25 486ZM214 567L106 486L214 378H241L349 486L241 567H214Z" />
<glyph unicode="9" glyph-name="nine" horiz-adv-x="428" d="M94 0V27Q120 48 207 120Q241 148 260 188Q272 214 310 324Q298 300 250 284Q209 270 175 270Q166 274 136 289Q82 316 55 359Q43 378 13 459Q62 550 86 573Q106 593 202 648Q296 594 335 549Q391 485
391 394V317Q391 239 327 150T189 34L94 0ZM310 459L202 567L94 459L202 324L310 459Z" />
<glyph unicode=":" glyph-name="colon" horiz-adv-x="227" d="M193 54L139 0L85 54L139 108L193 54ZM193 405L139 351L85 405L139 459L193 405Z" />
<glyph unicode=";" glyph-name="semicolon" horiz-adv-x="236" d="M71 -135Q110 -96 123 -74Q134 -56 152 0L98 27L152 81L206 27V0L152 -108L98 -135H71ZM206 405L152 351L98 405L152 459L206 405Z" />
<glyph unicode="&lt;" glyph-name="less" horiz-adv-x="476" d="M402 486L456 432Q231 322 78 270Q191 249 257 223Q318 199 429 135L402 81Q245 141 -3 270Q220 420 402 486Z" />
<glyph unicode="=" glyph-name="equal" horiz-adv-x="475" d="M2 189V243Q113 261 151 261H285Q323 261 434 243V189Q323 171 285 171H151Q123 171 76 178L2 189ZM2 324V378Q113 396 151 396H285Q323 396 434 378V324Q323 306 285 306H151Q123 306 76 313L2 324Z" />
<glyph unicode="&gt;" glyph-name="greater" horiz-adv-x="453" d="M-2 432L25 486Q262 403 430 270Q227 155 25 81L-2 135Q183 236 349 270Q162 342 -2 432Z" />
<glyph unicode="?" glyph-name="question" horiz-adv-x="434" d="M147 27L201 81L255 27L201 0L147 27ZM93 486H39L12 513V567Q125 634 202 634Q275 634 328 590Q361 562 417 486V459L336 351H309Q272 295 263 262Q255 233 255 162H174V187Q174 240 195 278Q211
307 255 351V378L336 459L299 554Q234 563 221 563Q189 563 120 540V513L93 486Z" />
<glyph unicode="@" glyph-name="at" horiz-adv-x="478" d="M412 0L439 -27Q429 -52 339 -78Q256 -102 219 -102Q103 -102 41 -1Q-11 83 -11 207V316Q-11 450 48 523Q92 577 223 648Q332 609 374 574Q439 520 439 425V108Q328 120 313 123Q249 136 216 170T169
270Q204 360 236 392T358 459L223 567L115 513L88 459Q106 331 106 317V207Q106 191 101 160T96 113Q96 67 139 -17Q212 -42 244 -42Q263 -42 336 -18Q400 3 412 0ZM250 270L358 162V405L274 368L250 270Z" />
<glyph unicode="A" glyph-name="A" horiz-adv-x="455" d="M187 621H241Q396 314 430 0H349L295 189H284Q198 189 147 135Q106 91 79 0H-2Q71 378 187 621ZM160 243H268L214 459L160 243Z" />
<glyph unicode="B" glyph-name="B" horiz-adv-x="460" d="M291 324Q342 299 370 254Q373 252 426 162Q391 83 349 46Q297 0 220 0H21Q9 112 2 237Q-2 310 2 384Q9 511 21 621Q111 637 129 637Q239 637 308 598Q382 556 426 459L367 381Q343 349 291 324ZM264 54Q297
98 310 123Q329 160 329 203Q329 246 321 257L237 270H102Q118 180 118 162Q118 144 102 54H264ZM102 351H154Q215 351 261 382Q283 397 345 459Q283 521 261 536Q215 567 154 567H102Q118 477 118 459Q118 441 102 351Z" />
<glyph unicode="C" glyph-name="C" horiz-adv-x="441" d="M430 162Q393 81 346 50Q311 27 214 0Q-2 89 -2 324Q-2 429 58 523Q126 629 224 629Q290 629 341 597Q380 572 430 513V486L403 459H376V486L241 567Q79 499 79 344V275Q79 238 120 118Q187 83 236 83Q275
83 309 98Q327 106 376 135V189L430 162Z" />
<glyph unicode="D" glyph-name="D" horiz-adv-x="472" d="M173 0H22Q10 102 3 237Q-1 310 3 384Q10 521 22 621H172Q298 621 367 518Q427 429 427 297Q427 177 361 92Q289 0 173 0ZM103 54H211Q284 98 315 151T346 288V358Q346 391 336 436L319 513L244 550Q210
567 164 567H103Q126 381 123 304Q118 174 103 54Z" />
<glyph unicode="E" glyph-name="E" horiz-adv-x="373" d="M400 54V0Q287 -18 274 -18H164Q150 -18 22 0Q10 112 3 237Q-1 310 3 384Q10 511 22 621Q134 639 147 639H248Q262 639 373 621V567Q261 550 248 550Q229 550 103 567Q119 477 119 459Q119 441 103 351H265V297H103Q121
192 121 176Q121 160 103 54L180 66Q219 72 258 72Q272 72 400 54Z" />
<glyph unicode="F" glyph-name="F" horiz-adv-x="348" d="M130 0H49Q37 112 30 237Q26 310 30 384Q37 511 49 621L130 633Q177 640 211 640Q245 640 292 633L373 621V567Q277 550 259 550Q244 550 130 567Q146 477 146 459Q146 441 130 351H319V297H130Q148 163
148 149Q148 136 130 0Z" />
<glyph unicode="G" glyph-name="G" horiz-adv-x="453" d="M268 216V270H430V108Q361 0 241 0Q227 5 172 25Q91 54 42 147Q-2 230 -2 324Q-2 432 54 522Q118 625 218 625Q264 625 318 599Q369 575 403 540L376 486L349 540L241 567Q79 499 79 344V277Q79 139 214
54H268L349 135V216H268Z" />
<glyph unicode="H" glyph-name="H" horiz-adv-x="520" d="M138 0H57Q44 115 38 237Q34 310 38 384Q44 509 57 621H138Q157 501 157 486Q157 471 138 351H154Q354 351 354 621H435Q474 455 474 379V242Q474 166 435 0H354Q354 129 312 193Q261 270 138 270Q156
158 156 145Q156 126 138 0Z" />
<glyph unicode="I" glyph-name="I" horiz-adv-x="266" d="M198 0H117Q78 166 78 242V379Q78 455 117 621H198Q219 441 219 311Q219 180 198 0Z" />
<glyph unicode="J" glyph-name="J" horiz-adv-x="454" d="M95 243Q95 177 122 133Q143 98 203 54H230Q299 122 299 208Q299 234 294 302Q289 362 291 396Q297 521 311 621H392Q415 470 412 380Q411 342 407 235Q399 55 264 11Q227 -1 214 -1Q208 -1 203 0L78 37Q35
102 25 135T14 243H95Z" />
<glyph unicode="K" glyph-name="K" horiz-adv-x="398" d="M102 0H21Q9 112 2 237Q-2 310 2 384Q9 511 21 621H102Q120 487 120 473Q120 460 102 324Q226 526 318 621H372Q296 465 183 324Q297 190 426 0H411Q282 0 197 150L129 270L102 243Q119 129 119 114Q119
96 102 0Z" />
<glyph unicode="L" glyph-name="L" horiz-adv-x="348" d="M373 54V0L292 -12Q245 -19 211 -19Q177 -19 130 -12L49 0Q37 112 30 237Q26 310 30 384Q37 511 49 621H130Q142 538 149 415Q153 349 149 280Q142 153 130 54Q236 72 252 72Q268 72 373 54Z" />
<glyph unicode="M" glyph-name="M" horiz-adv-x="593" d="M508 621Q547 455 547 379V242Q547 166 508 0H427Q409 111 409 148V288Q409 318 427 405Q391 312 372 279Q355 250 292 162Q217 279 157 405Q175 318 175 288V148Q175 121 168 74L157 0H76Q64 102 57 237Q53
310 57 384Q64 521 76 621H103Q221 469 292 270Q364 447 508 621Z" />
<glyph unicode="N" glyph-name="N" horiz-adv-x="488" d="M106 0H25Q12 115 6 237Q2 310 6 384Q12 509 25 621H106Q239 443 322 189Q304 322 304 338V472Q304 488 322 621H403Q442 455 442 379V242Q442 166 403 0H349Q219 198 106 459Q130 300 126 222Q120 89 106 0Z" />
<glyph unicode="O" glyph-name="O" horiz-adv-x="470" d="M0 324Q0 533 216 648Q330 590 379 522Q432 446 432 324Q432 192 385 121T216 0Q0 89 0 324ZM81 271Q81 127 216 54Q351 121 351 263V360Q351 510 216 567Q81 500 81 353V271Z" />
<glyph unicode="P" glyph-name="P" horiz-adv-x="439" d="M102 0H21Q9 112 2 237Q-2 310 2 384Q9 511 21 621Q110 637 129 637Q244 637 313 587Q374 542 426 432Q364 302 305 270Q255 243 102 243Q120 138 120 122Q120 106 102 0ZM102 297H141Q211 297 260 336Q284
355 345 432Q284 509 260 528Q211 567 141 567H102Q120 454 120 435Q120 424 102 297Z" />
<glyph unicode="Q" glyph-name="Q" horiz-adv-x="472" d="M351 263V358Q351 503 216 567Q81 500 81 353V277Q81 138 216 54Q351 121 351 263ZM155 17Q70 89 37 150Q0 220 0 324Q0 533 216 648Q432 533 432 324Q432 212 395 140Q360 73 270 0Q316 -54 405 -54L378
-81L270 -54L216 0L155 17Z" />
<glyph unicode="R" glyph-name="R" horiz-adv-x="475" d="M101 0H20Q7 115 1 237Q-3 310 1 384Q7 509 20 621H186Q284 621 341 573Q394 528 425 432Q376 341 352 318Q332 298 236 243Q340 136 452 0H423Q334 0 251 85Q228 109 128 243H101Q119 138 119 122Q119
106 101 0ZM101 324H185Q207 324 307 348Q329 396 329 436Q329 472 307 530Q209 567 173 567H101Q119 462 119 446Q119 430 101 324Z" />
<glyph unicode="S" glyph-name="S" horiz-adv-x="453" d="M-2 108L25 135Q70 111 116 88Q186 53 208 53Q212 53 214 54L349 162L241 270H214Q183 303 113 350Q72 377 25 459Q85 635 237 635Q336 635 430 540L376 486V513Q313 539 276 539Q227 539 184 515Q159
501 106 459L214 351Q223 354 233 354Q285 354 350 284Q406 224 430 162Q389 86 348 52Q295 8 221 8Q98 8 -2 108Z" />
<glyph unicode="T" glyph-name="T" horiz-adv-x="401" d="M268 0H187Q166 156 166 283Q166 411 187 567H-2V621Q109 639 147 639H281Q309 639 356 632L430 621V567H268Q289 410 289 284Q289 157 268 0Z" />
<glyph unicode="U" glyph-name="U" horiz-adv-x="462" d="M321 621H402Q426 472 422 394Q420 345 412 214Q406 133 348 76Q305 34 213 0Q96 52 48 132Q2 208 2 339Q2 372 4 410Q10 524 24 621H105Q128 469 125 394Q124 375 120 311Q116 259 116 227Q116 173 145
130Q159 109 213 54Q268 109 282 130Q311 173 311 227Q311 253 305 318Q299 377 301 410Q307 525 321 621Z" />
<glyph unicode="V" glyph-name="V" horiz-adv-x="450" d="M214 162Q274 437 349 621H430Q396 307 241 0H214Q75 276 -2 621H79Q190 374 214 162Z" />
<glyph unicode="W" glyph-name="W" horiz-adv-x="483" d="M323 216L317 281Q313 325 314 346Q319 437 332 490Q341 525 377 621H458Q437 254 323 0Q269 97 256 130Q240 169 215 270Q184 134 134 0H107Q-9 343 -4 522L-1 621H80Q120 441 134 216Q156 311 166 340Q174
365 215 459H242L323 216Z" />
<glyph unicode="X" glyph-name="X" horiz-adv-x="443" d="M78 621Q160 529 227 436Q294 529 375 621H429Q373 478 294 335Q394 174 456 0H375Q290 99 217 205Q154 104 78 0H-3Q56 164 148 315Q61 461 -3 621H78Z" />
<glyph unicode="Y" glyph-name="Y" horiz-adv-x="412" d="M214 270Q272 470 349 621H430Q422 578 400 494Q391 470 321 344Q268 249 268 188V0H187Q175 72 175 195Q175 250 156 280Q142 301 109 354Q62 430 -2 621H79Q182 443 214 270Z" />
<glyph unicode="Z" glyph-name="Z" horiz-adv-x="513" d="M478 81V0Q367 -18 329 -18H195Q167 -18 120 -11L46 0Q175 314 370 540H46V621Q157 639 195 639H329Q357 639 404 632L478 621Q397 372 181 81L258 93Q297 99 336 99Q350 99 478 81Z" />
<glyph unicode="[" glyph-name="bracketleft" horiz-adv-x="287" d="M308 -81V-135Q203 -153 187 -153Q159 -153 65 -135Q50 -6 45 204Q43 272 45 343Q50 560 65 702Q171 720 187 720Q215 720 308 702V648H146Q193 431 187 276Q179 71 146 -81H308Z" />
<glyph unicode="\" glyph-name="backslash" horiz-adv-x="387" d="M26 675H107Q377 223 377 -81H296Q296 -18 264 60Q247 102 195 196Q148 281 129 332Q59 517 26 675Z" />
<glyph unicode="]" glyph-name="bracketright" horiz-adv-x="347" d="M44 648V702Q134 718 152 718Q170 718 260 702Q288 546 300 346Q304 272 300 200Q288 4 260 -135Q170 -151 152 -151Q134 -151 44 -135V-81H179Q134 137 139 290Q145 489 179 648H44Z" />
<glyph unicode="^" glyph-name="asciicircum" horiz-adv-x="431" d="M397 432L370 378Q295 437 281 451Q273 459 208 540Q137 449 46 378L19 432Q115 540 208 648Q314 539 397 432Z" />
<glyph unicode="_" glyph-name="underscore" horiz-adv-x="463" d="M-17 -216V-162Q167 -139 247 -142Q380 -147 496 -162V-216Q310 -239 233 -236Q103 -231 -17 -216Z" />
<glyph unicode="`" glyph-name="grave" horiz-adv-x="278" d="M219 513Q129 582 57 675H138L246 513H219Z" />
<glyph unicode="a" glyph-name="a" horiz-adv-x="490" d="M450 162Q450 128 443 81L431 0H350V54Q326 49 292 35Q251 17 242 0H183Q65 0 -1 108Q70 218 143 251Q183 269 350 297V324L215 405Q147 371 137 367Q97 351 53 351L26 378Q95 409 163 438Q213 459 296
459Q299 458 330 441Q450 377 450 162ZM350 243Q216 210 198 203Q123 174 80 108Q137 80 146 77Q182 63 217 63Q236 63 323 81L350 108V243Z" />
<glyph unicode="b" glyph-name="b" horiz-adv-x="474" d="M127 27V0H46Q23 192 26 341Q29 535 46 675H127V432H181L262 459Q445 387 445 220Q445 125 384 63T228 0Q180 0 127 27ZM127 108L181 54H262L370 189V270L262 405Q209 387 196 384Q170 378 127 378Q144
251 144 238Q144 221 127 108Z" />
<glyph unicode="c" glyph-name="c" horiz-adv-x="422" d="M403 378L376 324Q318 357 305 363Q265 382 226 382Q186 382 120 351Q90 249 90 219Q90 185 120 105Q186 75 225 75Q264 75 304 94Q321 102 376 135L430 81Q352 42 332 34Q272 10 228 10Q168 10 119 39Q92
55 31 112Q6 191 6 222Q6 315 70 382T228 449Q266 449 323 428Q388 404 403 378Z" />
<glyph unicode="d" glyph-name="d" horiz-adv-x="486" d="M325 432V675H406Q454 487 447 330Q438 128 406 0H325V27H318Q270 27 217 0Q12 67 12 230Q12 325 70 382Q117 427 217 459Q270 432 325 432ZM325 378L271 405H244Q241 404 206 388Q148 362 121 319Q103
290 82 216Q103 158 125 129Q154 91 203 71L244 54H271L325 81V378Z" />
<glyph unicode="e" glyph-name="e" horiz-adv-x="446" d="M216 8Q128 8 67 70T6 221Q6 319 64 378Q112 427 213 459Q303 424 335 392T402 270Q329 238 294 227Q234 208 178 208Q167 208 78 216L129 95Q186 73 221 73Q261 73 302 93Q322 103 375 135L429 108Q360
55 331 39Q274 8 216 8ZM321 297L213 405Q158 384 129 355T78 270Q195 293 321 297Z" />
<glyph unicode="f" glyph-name="f" horiz-adv-x="376" d="M214 0H133Q115 128 115 142V252Q115 265 133 378H25V459H133V540Q223 675 361 675H403V594Q361 594 241 567Q214 528 214 486V459H376V378H214Q232 265 232 252V142Q232 128 214 0Z" />
<glyph unicode="g" glyph-name="g" horiz-adv-x="473" d="M326 459H407Q430 281 427 182Q426 137 422 9Q417 -142 272 -243H223Q184 -243 103 -217Q15 -189 2 -162L29 -135Q131 -189 245 -189Q302 -113 314 -77T326 54L272 0H223Q137 0 73 60T9 205Q9 294 72 374Q139
459 225 459Q273 459 326 432V459ZM326 108V351L272 405H245L124 351Q93 247 93 217Q93 186 120 105Q184 73 194 69Q231 54 272 54L326 108Z" />
<glyph unicode="h" glyph-name="h" horiz-adv-x="445" d="M351 373L354 370Q419 305 419 162Q419 128 412 81L400 0H319Q319 30 322 90T325 181Q325 257 299 307T211 405Q175 369 161 358Q140 342 103 324L115 243Q122 196 122 162Q122 127 103 0H22Q0 204 2 341Q5
517 22 675H103Q121 541 121 527Q121 514 103 378Q140 425 219 425Q296 425 354 370L351 373ZM354 370L358 366L354 370Z" />
<glyph unicode="i" glyph-name="i" horiz-adv-x="265" d="M206 459Q230 300 226 222Q220 89 206 0H125Q107 128 107 142V254Q107 265 125 378H44V459H206ZM125 621L179 675L206 621L179 567L125 621Z" />
<glyph unicode="j" glyph-name="j" horiz-adv-x="198" d="M60 459H141Q165 299 161 222Q158 159 149 44Q141 -61 141 -135Q132 -155 47 -191L-75 -243L-129 -216V-162H-21L33 -108H60V-14Q60 24 48 112Q38 193 40 238Q46 350 60 459ZM60 621L114 675L168 621L114
567L60 621Z" />
<glyph unicode="k" glyph-name="k" horiz-adv-x="399" d="M373 405Q272 301 175 251Q207 216 296 120Q352 60 427 0Q348 0 304 31Q279 49 217 125Q180 170 130 228Q117 223 103 216Q119 126 119 108Q119 90 103 0H22Q-1 192 2 341Q5 535 22 675H103Q121 546 121
532V413Q121 399 103 270Q212 376 319 459L373 405Z" />
<glyph unicode="l" glyph-name="l" horiz-adv-x="264" d="M199 675Q221 471 219 335Q216 158 199 0H118Q72 190 78 345Q85 537 118 675H199Z" />
<glyph unicode="m" glyph-name="m" horiz-adv-x="501" d="M90 351Q108 239 108 226V125Q108 112 90 0H9Q-9 112 -9 125V228Q-9 307 36 362Q59 390 144 459L225 405H252L333 459Q407 386 425 357Q459 303 459 226V125Q459 112 441 0H360V304Q360 351 333 405L279
351Q297 239 297 226V125Q297 112 279 0H198Q180 112 180 125V226Q180 239 198 351L144 405L90 351Z" />
<glyph unicode="n" glyph-name="n" horiz-adv-x="455" d="M351 373L355 370Q419 302 419 162Q419 127 400 0H319Q319 30 322 90T325 181Q325 257 299 307T211 405Q176 369 162 358Q141 341 103 324L115 243Q122 196 122 162Q122 128 115 81L103 0H22Q-1 167 2
238Q7 354 22 459H103V378Q141 425 219 425Q297 425 355 370L351 373Z" />
<glyph unicode="o" glyph-name="o" horiz-adv-x="478" d="M8 217Q8 312 67 381T220 451Q314 451 373 379Q428 312 428 216Q428 129 368 68T221 7Q136 7 72 69T8 217ZM217 405Q118 352 93 277Q80 237 80 227Q80 222 82 216L119 105Q177 76 224 76Q267 76 325 105Q355
230 352 243Q337 309 308 344Q280 376 217 405Z" />
<glyph unicode="p" glyph-name="p" horiz-adv-x="489" d="M129 0V-216H-119L-116 -121L38 -123Q25 -31 28 114Q32 308 48 459H129V405Q172 429 264 459Q320 441 338 432Q372 415 398 384V383Q419 358 436 316Q455 270 453 241Q439 0 183 0L156 27L129 0ZM129 81L210
54H237Q243 57 263 68Q311 94 335 129Q352 154 372 216Q351 292 337 318Q308 372 237 405H183L129 351Q147 238 147 219Q147 208 129 81Z" />
<glyph unicode="q" glyph-name="q" horiz-adv-x="564" d="M316 432V459L426 474L418 366Q415 321 427 234T438 103Q432 -10 421 -110L604 -86L576 -200L316 -216V27Q281 0 217 0Q128 0 64 63T-1 216Q-1 375 181 459Q234 441 248 438Q273 432 316 432ZM316 351Q268
376 181 405Q110 360 87 287L73 243V189Q138 108 163 89Q209 54 289 54L316 81V351Z" />
<glyph unicode="r" glyph-name="r" horiz-adv-x="417" d="M130 0H49Q26 167 29 238Q34 354 49 459H130V378Q210 459 319 459L400 405L346 351L238 405L130 324V0Z" />
<glyph unicode="s" glyph-name="s" horiz-adv-x="420" d="M195 0Q154 0 40 27L13 81L40 108L67 81Q192 49 202 54L310 108V135L229 189H202L175 216H148L13 324Q43 375 58 392Q83 419 126 438Q179 461 192 461Q197 461 202 459Q274 430 391 378L364 351H337Q236
406 209 406Q205 406 202 405L94 351V324L175 270H256L391 135Q354 65 315 35Q268 0 195 0Z" />
<glyph unicode="t" glyph-name="t" horiz-adv-x="403" d="M96 123Q75 170 75 251Q75 272 77 314T79 378H-2Q59 439 72 486Q79 512 79 621H160V459H349V378H160Q176 288 176 270Q176 252 160 162L295 54Q323 59 355 73Q394 90 403 108L430 81Q420 61 355 33Q307
12 268 0Q195 21 165 40Q122 67 96 124V123Z" />
<glyph unicode="u" glyph-name="u" horiz-adv-x="459" d="M16 184V459H97L109 378Q116 331 116 296Q116 284 113 260T109 223Q109 124 205 54L286 81Q313 135 313 182V459H394Q417 294 414 222Q409 101 394 0H313V81Q280 48 178 0Q119 19 94 35Q16 84 16 184ZM38
94L32 105L35 99L38 94Z" />
<glyph unicode="v" glyph-name="v" horiz-adv-x="436" d="M214 135Q280 325 349 459H430Q392 310 357 219Q311 100 241 0H214Q77 187 -2 459H79Q180 286 214 135Z" />
<glyph unicode="w" glyph-name="w" horiz-adv-x="493" d="M323 162Q342 317 377 459H458Q439 215 350 0H323Q260 123 215 270Q185 122 134 0H107Q18 218 -1 459H80Q116 317 134 162Q163 267 215 378Q281 266 323 162Z" />
<glyph unicode="x" glyph-name="x" horiz-adv-x="464" d="M434 459Q379 372 284 232Q374 116 434 0H430Q328 0 206 143Q126 55 83 0H2Q61 111 145 221Q72 324 2 459H83Q163 375 218 311Q274 376 353 459H434Z" />
<glyph unicode="y" glyph-name="y" horiz-adv-x="480" d="M-28 -282L-30 -188Q-31 -179 67 -179Q95 -179 122 -170L192 0Q94 170 30 459H111Q194 283 219 81Q282 276 381 459H462Q395 105 165 -270L-28 -282Z" />
<glyph unicode="z" glyph-name="z" horiz-adv-x="413" d="M283 378Q162 360 148 360Q133 360 13 378V459H391V432Q309 260 148 81Q254 99 270 99Q286 99 391 81V0Q278 -18 266 -18H155Q141 -18 13 0V27Q153 229 283 378Z" />
<glyph unicode="{" glyph-name="braceleft" horiz-adv-x="341" d="M365 -135V-162Q255 -135 176 -108Q157 -73 137 -30Q122 2 122 54L149 81V101Q149 160 95 243H14V270H95Q128 323 137 346Q149 378 149 432Q149 476 122 540L159 596Q175 620 203 648L365 675V648Q256
621 230 621Q222 589 201 443Q187 346 149 270H122Q167 225 188 156Q201 112 210 24Q219 -67 230 -108Q256 -108 365 -135Z" />
<glyph unicode="|" glyph-name="bar" horiz-adv-x="285" d="M118 -135Q90 13 78 200Q74 270 78 340Q90 528 118 675H199Q228 521 239 340Q243 270 239 200Q228 18 199 -135H118Z" />
<glyph unicode="}" glyph-name="braceright" horiz-adv-x="399" d="M42 648V675H150Q219 631 243 565Q259 519 265 430Q272 324 285 270H366V243H285L231 162Q258 98 258 54Q258 0 231 -108Q187 -130 140 -142Q136 -143 42 -162V-135L150 -108Q183 -43 188 -30Q204
12 204 54L177 81V88Q177 124 195 168Q204 190 231 243H258L285 270H231L177 378Q194 426 198 445Q204 473 204 513Q204 556 142 600Q93 635 42 648Z" />
<glyph unicode="~" glyph-name="asciitilde" horiz-adv-x="482" d="M32 243H5Q31 296 50 315L113 378Q169 369 228 349L302 324H356Q385 353 410 405L437 378V324L329 243L221 297Q149 306 113 324L32 243Z" />
</font>
</defs>
</svg>
